HIERARCHY
ROOT SimulationBone
{
	OFFSET 0.000000 0.000000 0.000000
	CHANNELS 6 Xposition Yposition Zposition Zrotation Yrotation Xrotation 
	JOINT Hips
	{
		OFFSET 0.000000 0.000000 0.000000
		CHANNELS 6 Xposition Yposition Zposition Zrotation Yrotation Xrotation 
		JOINT RightUpLeg
		{
			OFFSET 0.103461 1.857818 10.548512
			CHANNELS 3 Zrotation Yrotation Xrotation
			JOINT RightLeg
			{
				OFFSET 43.500000 -0.000019 0.000004
				CHANNELS 3 Zrotation Yrotation Xrotation
				JOINT RightFoot
				{
					OFFSET 42.372200 0.000011 0.000000
					CHANNELS 3 Zrotation Yrotation Xrotation
					JOINT RightToe
					{
						OFFSET 17.300009 0.000002 0.000004
						CHANNELS 3 Zrotation Yrotation Xrotation
						End Site
						{
							OFFSET 0.000000 0.000000 0.000000
						}
					}
				}
			}
		}
		JOINT LeftUpLeg
		{
			OFFSET 0.103461 1.857838 -10.548504
			CHANNELS 3 Zrotation Yrotation Xrotation
			JOINT LeftLeg
			{
				OFFSET 43.500042 -0.000038 0.000017
				CHANNELS 3 Zrotation Yrotation Xrotation
				JOINT LeftFoot
				{
					OFFSET 42.372253 -0.000008 0.000015
					CHANNELS 3 Zrotation Yrotation Xrotation
					JOINT LeftToe
					{
						OFFSET 17.299995 -0.000004 0.000004
						CHANNELS 3 Zrotation Yrotation Xrotation
						End Site
						{
							OFFSET 0.000000 0.000000 0.000000
						}
					}
				}
			}
		}
		JOINT Spine
		{
			OFFSET 6.901970 -2.603733 -0.000002
			CHANNELS 3 Zrotation Yrotation Xrotation
			JOINT Spine1
			{
				OFFSET 12.588097 0.000016 0.000005
				CHANNELS 3 Zrotation Yrotation Xrotation
				JOINT Spine2
				{
					OFFSET 12.343206 -0.000008 -0.000008
					CHANNELS 3 Zrotation Yrotation Xrotation
					JOINT Neck
					{
						OFFSET 25.832890 -0.000023 0.000008
						CHANNELS 3 Zrotation Yrotation Xrotation
						JOINT Head
						{
							OFFSET 11.766625 0.000019 -0.000006
							CHANNELS 3 Zrotation Yrotation Xrotation
							End Site
							{
								OFFSET 0.000000 0.000000 0.000000
							}
						}
					}
					JOINT RightShoulder
					{
						OFFSET 19.745903 -1.480385 6.000111
						CHANNELS 3 Zrotation Yrotation Xrotation
						JOINT RightArm
						{
							OFFSET 11.284122 -0.000021 -0.000025
							CHANNELS 3 Zrotation Yrotation Xrotation
							JOINT RightForeArm
							{
								OFFSET 33.000057 -0.000001 0.000032
								CHANNELS 3 Zrotation Yrotation Xrotation
								JOINT RightHand
								{
									OFFSET 25.200003 0.000023 0.000006
									CHANNELS 3 Zrotation Yrotation Xrotation
									End Site
									{
										OFFSET 0.000000 0.000000 0.000000
									}
								}
							}
						}
					}
					JOINT LeftShoulder
					{
						OFFSET 19.746098 -1.480366 -6.000072
						CHANNELS 3 Zrotation Yrotation Xrotation
						JOINT LeftArm
						{
							OFFSET 11.284136 -0.000004 -0.000006
							CHANNELS 3 Zrotation Yrotation Xrotation
							JOINT LeftForeArm
							{
								OFFSET 33.000092 0.000029 0.000002
								CHANNELS 3 Zrotation Yrotation Xrotation
								JOINT LeftHand
								{
									OFFSET 25.199776 0.000140 0.000420
									CHANNELS 3 Zrotation Yrotation Xrotation
									End Site
									{
										OFFSET 0.000000 0.000000 0.000000
									}
								}
							}
						}
					}
				}
			}
		}
	}
}
MOTION
Frames: 15
Frame Time: 0.016667
-73.954572 0.000000 407.077495 180.000000 10.766758 180.000000 -10.145766 86.934738 -1.206293 82.766054 -0.636196 176.831138 -178.036708 -0.130401 170.451100 -41.733073 1.090111 0.448944 78.877189 -1.439086 -4.338889 21.454551 0.003108 0.000017 141.887808 0.134294 -174.612243 -16.682110 1.605054 0.136319 82.124787 0.153952 1.496959 21.454551 -0.003095 -0.000001 12.391106 -0.061249 -2.987461 14.762684 0.259777 -5.958079 14.446456 0.223722 -5.959542 21.097708 5.098535 -1.492991 -26.307460 3.818813 -3.514047 153.716916 -76.324217 25.361083 0.190385 45.635194 15.064312 -65.428000 -20.365732 2.714598 -5.435153 -15.919694 29.367859 -118.947371 77.674716 63.630017 2.617245 -59.976886 29.245616 -96.812951 1.784362 -2.732798 -34.480423 35.742959 -42.830514 
-77.242412 0.000000 406.338667 180.000000 11.017748 180.000000 -8.995589 86.292323 -0.995355 83.846248 -0.993545 178.260207 -173.539162 -0.133256 171.630386 -39.748774 0.826066 1.015192 77.171741 -2.087071 -5.055010 21.454541 0.003108 0.000017 143.125468 1.005607 -176.374065 -12.145852 1.793646 1.911861 84.750042 -0.681922 3.610519 21.454550 -0.003094 -0.000000 12.193467 0.090701 -3.219019 14.358138 0.580752 -6.401682 14.042195 0.542032 -6.405060 21.499378 4.998272 -1.853268 -25.279543 3.248233 -3.624593 153.282541 -76.433370 25.796578 0.624954 45.842581 15.288253 -66.565182 -19.818216 2.722832 -7.861903 -17.626786 28.947560 -118.788822 77.586979 63.796922 5.147402 -59.939510 25.674102 -96.667447 1.935358 -2.737105 -34.894432 33.473834 -45.508915 
-80.441985 0.000000 405.645440 180.000000 11.299748 180.000000 -7.998193 85.669647 -0.798244 84.766966 -0.856390 179.287019 -169.593720 -0.413405 172.616543 -38.203508 0.828227 1.105065 74.918951 -2.623269 -6.237897 21.454545 0.003108 0.000017 143.529280 1.258102 -177.388919 -10.889079 1.707774 3.115854 80.114177 -1.187016 4.479936 21.454551 -0.003093 0.000000 11.931573 0.283087 -3.294081 13.823453 0.958283 -6.530628 13.507570 0.918782 -6.536269 22.063014 4.880355 -2.255538 -24.021874 2.672970 -3.791165 153.187057 -76.583498 25.885051 1.058835 46.288177 15.682866 -67.478122 -19.322993 2.725383 -9.609817 -18.800162 28.368131 -118.431090 77.435906 64.170039 8.032566 -59.758914 21.732452 -96.750626 1.998390 -2.744974 -36.283023 31.780425 -48.901589 
-83.559215 0.000000 404.995366 180.000000 11.610752 180.000000 -7.129660 85.045571 -0.609390 85.659752 -0.301225 179.962897 -166.341249 -0.933355 173.342091 -37.655610 1.096020 0.863366 72.684226 -3.151375 -7.949927 21.454554 0.003108 0.000017 143.255210 1.072673 -177.473543 -12.786709 1.658891 3.658291 72.391580 -1.471721 3.942666 21.454552 -0.003092 0.000000 11.667622 0.522200 -3.244031 13.283774 1.413912 -6.406762 12.967748 1.375144 -6.415143 22.688575 4.688674 -2.668604 -22.636368 2.148153 -3.999523 153.512960 -76.731621 25.545248 1.342188 46.972115 15.969070 -68.185878 -18.914093 2.725781 -10.632646 -19.361722 27.812271 -118.185782 77.249471 64.431868 10.715122 -59.416917 17.956367 -96.953886 2.036356 -2.756471 -38.475450 30.302296 -52.751009 
-86.600028 0.000000 404.385998 180.000000 11.948746 180.000000 -6.366000 84.398956 -0.423186 86.646487 0.588695 -179.662509 -163.922354 -1.653594 173.751529 -38.667343 1.606320 0.418063 71.038317 -3.750354 -10.258919 21.454562 0.003108 0.000017 142.435357 0.665300 -176.428909 -17.712682 1.844191 3.451117 65.821255 -1.924785 1.773181 21.454553 -0.003091 -0.000000 11.463882 0.814122 -3.099832 12.864377 1.968261 -6.090427 12.548044 1.931378 -6.102151 23.276614 4.365144 -3.062007 -21.225561 1.727811 -4.230773 154.343832 -76.832404 24.694829 1.309698 47.897151 15.853112 -68.707269 -18.625519 2.727268 -10.895726 -19.223832 27.484247 -118.345016 77.056605 64.284383 12.661245 -58.953294 14.858000 -97.168640 2.112169 -2.771509 -41.281884 28.689922 -56.791574 
-89.570349 0.000000 403.814889 180.000000 12.311711 180.000000 -5.684218 83.718171 -0.232869 87.800246 1.703002 -179.525921 -162.462871 -2.515746 173.846627 -41.642038 2.285977 -0.104075 70.409709 -4.351777 -12.872304 21.454561 0.003108 0.000017 141.283880 0.255411 -174.224274 -25.212916 2.219551 2.452951 63.733298 -2.606966 -1.834933 21.454551 -0.003090 -0.000000 11.367227 1.156051 -2.895838 12.660138 2.622339 -5.648836 12.343378 2.588094 -5.664515 23.744709 3.867351 -3.405241 -19.878323 1.458481 -4.460534 155.699521 -76.838296 23.315913 0.812416 49.048245 15.103209 -69.032272 -18.498831 2.732015 -10.425733 -18.394520 27.555678 -119.139912 76.892739 63.490549 13.452281 -58.461452 12.842563 -97.256878 2.268528 -2.787115 -44.390096 26.649697 -60.667462 
-92.476106 0.000000 403.279591 180.000000 12.697615 180.000000 -5.065498 83.029610 -0.026736 89.020679 2.835436 -179.518456 -162.036211 -3.378600 173.819299 -46.339933 2.951014 -0.487045 70.609422 -4.466660 -14.016967 21.454560 0.003108 0.000017 140.396382 -0.064499 -171.519519 -33.364302 2.253177 1.049821 65.792028 -2.779353 -5.023562 21.454551 -0.003089 0.000000 11.362643 1.511887 -2.682188 12.642644 3.308035 -5.184759 12.325408 3.276568 -5.204594 24.076509 3.222320 -3.666420 -18.626860 1.361791 -4.657203 157.376477 -76.705663 21.616947 -0.138844 50.345436 13.823519 -69.036437 -18.605794 2.739617 -9.479923 -17.263392 27.982423 -120.633977 76.821373 61.980889 12.963709 -58.096487 12.054048 -96.962669 2.467128 -2.787144 -47.149823 24.057419 -63.792866 
-95.323222 0.000000 402.777657 180.000000 13.104410 180.000000 -4.508132 82.383235 0.202250 90.171139 3.807640 -179.535786 -162.681671 -4.123266 173.885954 -52.303202 3.469126 -0.579359 71.367940 -3.769205 -12.377069 21.454563 0.003108 0.000017 140.319729 -0.308337 -169.051539 -40.232572 1.665620 -0.217190 70.514076 -1.987189 -6.047714 21.454552 -0.003089 0.000000 11.417354 1.844065 -2.503685 12.746519 3.952891 -4.791220 12.428827 3.923784 -4.814972 24.298850 2.489442 -3.820301 -17.478138 1.440195 -4.793819 159.071644 -76.420493 19.905833 -1.476937 51.690448 12.245458 -68.581458 -19.004533 2.747594 -8.322187 -16.297633 28.598564 -122.821932 76.903719 59.756064 11.199406 -57.977288 12.417547 -96.024960 2.734358 -2.761644 -48.940748 21.018279 -65.682784 
-98.117624 0.000000 402.306639 180.000000 13.530032 180.000000 -4.075784 81.885269 0.438873 91.141839 4.652297 -179.495556 -164.332780 -4.766297 174.153213 -58.833042 3.841753 -0.673187 72.757380 -2.799391 -10.015239 21.454565 0.003108 0.000017 140.985403 -0.511503 -167.155903 -45.339061 1.027968 -1.141366 75.657274 -0.938337 -5.767913 21.454553 -0.003091 -0.000000 11.492036 2.142061 -2.367252 12.892275 4.534670 -4.483874 12.574173 4.507405 -4.511162 24.549612 1.787594 -3.874689 -16.394223 1.647437 -4.868839 160.416690 -76.072723 18.552619 -3.096588 52.984029 10.751649 -67.589898 -19.668291 2.754416 -7.025953 -15.882942 29.009793 -125.465407 77.183858 57.055271 8.411704 -58.132940 13.208607 -94.280003 3.437691 -2.735641 -49.351046 18.061646 -66.250232 
-100.865239 0.000000 401.864091 180.000000 13.972399 180.000000 -3.821362 81.636940 0.667962 91.858221 5.428333 -179.345804 -166.873455 -5.330018 174.647921 -65.235390 4.055417 -1.049352 74.689186 -2.089198 -9.104973 21.454558 0.003108 0.000017 142.186270 -0.691508 -166.002487 -48.652018 0.921245 -1.734378 79.335670 -0.268220 -5.556777 21.454551 -0.003095 -0.000000 11.550329 2.398997 -2.266674 13.006538 5.037656 -4.252578 12.688085 5.011770 -4.282924 24.973808 1.234734 -3.852468 -15.334559 1.923602 -4.891904 161.162705 -75.774547 17.806344 -4.846474 54.147521 9.742656 -66.034765 -20.520809 2.751991 -5.599602 -16.254625 28.821258 -128.335269 77.689366 54.110930 4.893782 -58.556656 13.658424 -91.636744 4.936442 -2.718740 -48.133367 15.801417 -65.499520 
-103.571990 0.000000 401.447564 180.000000 14.429411 180.000000 -3.687623 81.663254 0.888802 92.350833 6.090748 -179.142874 -170.091135 -5.765108 175.197781 -71.027580 4.177118 -1.533851 76.438142 -1.540519 -8.865030 21.454550 0.003108 0.000017 143.776465 -0.911301 -165.503420 -50.549307 1.204769 -2.092557 81.843362 0.091832 -5.556478 21.454550 -0.003097 -0.000000 11.573841 2.594921 -2.179903 13.053106 5.419227 -4.056747 12.734361 5.394510 -4.089421 25.633960 0.884098 -3.794904 -14.294486 2.200975 -4.886501 161.342591 -75.603305 17.630956 -6.562256 55.137052 9.418212 -64.038849 -21.372036 2.729123 -3.957682 -17.177801 27.905584 -131.300301 78.369776 51.061858 0.966895 -59.109070 13.348222 -88.203402 7.215497 -2.730334 -45.398255 14.919684 -63.230079 
-106.243805 0.000000 401.054611 180.000000 14.898947 180.000000 -3.606385 81.947492 1.102781 92.672754 6.601287 -178.956640 -173.767055 -6.065992 175.613515 -75.867608 4.313392 -1.888824 77.436121 -1.031883 -8.154056 21.454547 0.003108 0.000017 145.624543 -1.235713 -165.491614 -51.471747 1.572412 -2.282149 83.872209 0.307781 -5.570049 21.454550 -0.003093 0.000001 11.554159 2.717188 -2.083023 13.015928 5.651453 -3.850853 12.696949 5.627974 -3.884956 26.535334 0.750190 -3.742576 -13.284614 2.423438 -4.880689 161.063497 -75.602183 17.915653 -8.083347 55.929565 9.868010 -61.784727 -22.025982 2.685852 -2.032888 -18.226989 26.303931 -134.249294 79.156420 48.027072 -3.017403 -59.648057 12.020603 -84.168552 10.084881 -2.766541 -41.334784 15.815239 -59.162473 
-108.886609 0.000000 400.682786 180.000000 15.378870 180.000000 -3.575983 82.382263 1.312852 92.875155 7.049111 -178.803959 -177.768049 -6.401597 175.881292 -79.808287 4.441293 -1.999063 78.217085 -0.698389 -7.323722 21.454553 0.003108 0.000018 147.600332 -1.707792 -165.731576 -51.728635 1.857021 -2.358449 85.546527 0.453561 -5.486776 21.454553 -0.003089 0.000001 11.504431 2.795562 -1.960515 12.921128 5.792554 -3.600171 12.601957 5.770585 -3.635153 27.533489 0.756837 -3.722849 -12.339826 2.586741 -4.900755 160.543499 -75.726466 18.439995 -9.300780 56.539696 10.910511 -59.530043 -22.376297 2.620855 0.008919 -18.720521 24.473026 -137.279230 79.962685 44.914018 -6.774170 -60.066280 9.907539 -79.869397 12.990611 -2.770093 -36.558006 18.050754 -53.475172 
-111.506327 0.000000 400.329640 180.000000 15.867026 180.000000 -3.598438 82.863707 1.522202 93.007707 7.521757 -178.690734 178.023408 -6.924995 176.034995 -82.925015 4.514362 -1.839992 79.392728 -0.643050 -6.903188 21.454563 0.003109 0.000018 149.610584 -2.348666 -166.011176 -51.554313 1.951688 -2.379075 86.864900 0.575201 -5.247384 21.454554 -0.003090 0.000001 11.442340 2.862172 -1.802949 12.803883 5.906240 -3.281450 12.484541 5.886186 -3.317142 28.455684 0.811512 -3.756049 -11.498868 2.705817 -4.968115 160.000875 -75.912778 18.984172 -10.151501 56.988846 12.299873 -57.517078 -22.382331 2.542459 1.891758 -18.054694 23.001168 -140.477143 80.703413 41.638975 -10.090277 -60.273316 7.342432 -75.677840 15.398622 -2.755727 -31.689544 20.993145 -46.640577 
-114.108885 0.000000 399.992726 180.000000 16.361246 180.000000 -3.624233 83.392776 1.730321 93.106200 7.976247 -178.638185 173.770900 -7.567703 176.039697 -85.013991 4.525718 -1.667324 80.840568 -0.623964 -6.658010 21.454568 0.003110 0.000018 151.710604 -3.069791 -166.273155 -51.010013 1.860876 -2.401711 87.880382 0.700842 -4.911194 21.454555 -0.003092 0.000000 11.381781 2.916226 -1.617082 12.691671 5.992173 -2.907510 12.372163 5.974370 -2.943741 29.166693 0.843576 -3.841641 -10.791468 2.818728 -5.087468 159.540185 -76.107263 19.444141 -10.643240 57.323706 13.856582 -55.836925 -22.177611 2.467225 3.389136 -16.063147 22.352294 -143.798209 81.332942 38.249089 -12.938308 -60.317624 4.588283 -71.913538 17.221258 -2.727241 -27.148300 23.660606 -39.863421 
